<svg xmlns="http://www.w3.org/2000/svg" viewBox="-2 -2 104 104" preserveAspectRatio="xMidYMid meet"><path fill="#8d93a3" stroke="#8d93a3" stroke-linejoin="round" stroke-linecap="round" stroke-width="2.4" d="M99.136,0.610 L98.803,0.271 L69.282,0.271 L67.154,1.084 L25.066,35.569 L24.402,37.263 L24.402,58.333 L24.668,59.011 L25.133,59.417 L25.997,59.350 L26.396,58.808 L26.795,58.808 L27.726,57.724 L28.125,57.724 L28.790,56.911 L29.189,56.911 L30.120,55.827 L30.519,55.827 L32.513,53.930 L32.912,53.930 L35.173,51.762 L35.572,51.762 L37.566,49.864 L37.965,49.864 L38.630,49.119 L39.029,49.051 L39.960,47.967 L40.359,47.967 L41.024,47.222 L42.487,46.341 L44.814,44.173 L46.144,43.428 L48.471,41.260 L48.803,41.260 L49.535,40.447 L50.931,39.634 L53.258,37.466 L53.590,37.466 L55.652,35.569 L55.984,35.569 L58.444,33.672 L60.505,31.775 L60.838,31.775 L99.136,1.016 Z"/><path fill="#8d93a3" stroke="#8d93a3" stroke-linejoin="round" stroke-linecap="round" stroke-width="2.4" d="M31.449,63.753 L31.449,64.905 L37.301,70.528 L37.566,70.528 L40.758,73.780 L41.024,73.780 L41.090,74.119 L44.215,77.033 L45.080,77.575 L47.673,80.285 L48.005,80.285 L51.862,84.282 L52.261,84.282 L55.585,87.805 L55.984,87.805 L58.777,90.786 L59.176,90.786 L63.032,94.851 L63.431,94.851 L67.553,98.916 L70.013,99.729 L98.803,99.729 L99.468,99.458 L99.402,98.509 L74.601,74.051 L50.066,50.474 L49.535,50.203 L48.537,50.203 Z"/><path fill="#2f43ea" stroke="#2f43ea" stroke-linejoin="round" stroke-linecap="round" stroke-width="2.4" d="M22.606,0.271 L21.343,0.542 L20.279,1.152 L1.463,15.515 L0.532,16.599 L0.000,17.886 L0.000,84.214 L0.864,86.111 L1.928,87.127 L20.811,99.390 L22.207,99.932 L33.644,99.932 L34.441,99.255 L34.907,97.900 L34.907,83.062 L34.508,81.640 L33.644,80.827 L19.415,71.545 L18.551,70.664 L18.085,69.512 L18.085,33.808 L18.949,32.182 L33.777,20.732 L34.508,19.851 L34.907,18.089 L34.840,1.897 L34.508,1.016 L33.644,0.407 Z"/></svg>